<?xml version="1.0" encoding="iso-8859-1"?>
<!-- Generator: Adobe Illustrator 19.0.0, SVG Export Plug-In . SVG Version: 6.00 Build 0)  -->
<svg version="1.1" id="Capa_1" xmlns="http://www.w3.org/2000/svg" xmlns:xlink="http://www.w3.org/1999/xlink" x="0px" y="0px"
	 viewBox="0 0 491.52 491.52" style="enable-background:new 0 0 491.52 491.52;" xml:space="preserve">
<circle style="fill:#E05B49;" cx="245.76" cy="245.76" r="245.76"/>
<path style="opacity:0.1;enable-background:new    ;" d="M346.573,104.946H144.947c-6.042,0-10.906,4.915-10.906,10.905v259.79
	c0,3.379,1.536,6.4,3.942,8.448l0.154,0.102l107.321,107.321c0.101,0,0.2,0.008,0.301,0.008c135.73,0,245.76-110.031,245.76-245.76
	c0-0.093-0.007-0.184-0.007-0.276L355.174,109.145C353.178,106.585,350.054,104.946,346.573,104.946z"/>
<path style="fill:#FCD462;" d="M312.671,263.419V104.96H144.928c-6.02,0-10.9,4.88-10.9,10.9v259.8c0,6.02,4.88,10.9,10.9,10.9
	h201.662c6.02,0,10.901-4.88,10.901-10.9V263.419H312.671z"/>
<rect x="312.678" y="104.96" style="fill:#3A556A;" width="7.619" height="34.54"/>
<path style="fill:#64798A;" d="M346.591,104.96h-26.3v34.541h26.3c6.02,0,10.901,4.981,10.901,11.125V115.86
	C357.492,109.84,352.611,104.96,346.591,104.96z"/>
<path style="fill:#44C4A1;" d="M346.591,139.501h-26.3v38.14h26.3c6.02,0,10.901,4.88,10.901,10.9v-37.915
	C357.492,144.482,352.611,139.501,346.591,139.501z"/>
<rect x="312.678" y="139.52" style="fill:#3EA69B;" width="7.619" height="38.139"/>
<rect x="312.678" y="177.644" style="fill:#E1E6E9;" width="7.619" height="40.535"/>
<path style="fill:#EBF0F3;" d="M346.591,177.641h-26.3v40.535h26.3c6.02,0,10.901,4.88,10.901,10.9v-40.535
	C357.492,182.521,352.611,177.641,346.591,177.641z"/>
<path style="fill:#27A2DB;" d="M346.591,218.176h-26.3v45.242h37.201v-34.342C357.492,223.056,352.611,218.176,346.591,218.176z"/>
<rect x="312.678" y="218.179" style="fill:#2D93BA;" width="7.619" height="45.24"/>
<circle style="fill:#DC8744;" cx="224.461" cy="196.506" r="63.124"/>
<circle style="fill:#FFFFFF;" cx="224.461" cy="191.647" r="63.124"/>
<polygon style="fill:#E56353;" points="266.35,179.756 236.354,179.756 236.354,149.759 212.568,149.759 212.568,179.756 
	182.571,179.756 182.571,203.542 212.568,203.542 212.568,233.539 236.354,233.539 236.354,203.542 266.35,203.542 "/>
<g>
	<path style="fill:#DC8744;" d="M330.233,299.768H161.287c-2.526,0-4.575,2.047-4.575,4.574s2.049,4.575,4.575,4.575h168.947
		c2.526,0,4.575-2.049,4.575-4.575S332.76,299.768,330.233,299.768z"/>
	<path style="fill:#DC8744;" d="M330.233,324.774H161.287c-2.526,0-4.575,2.047-4.575,4.574c0,2.526,2.049,4.575,4.575,4.575
		h168.947c2.526,0,4.575-2.048,4.575-4.575C334.808,326.821,332.76,324.774,330.233,324.774z"/>
	<path style="fill:#DC8744;" d="M330.233,349.78H161.287c-2.526,0-4.575,2.048-4.575,4.574c0,2.527,2.049,4.575,4.575,4.575h168.947
		c2.526,0,4.575-2.049,4.575-4.575C334.808,351.828,332.76,349.78,330.233,349.78z"/>
</g>
<g>
</g>
<g>
</g>
<g>
</g>
<g>
</g>
<g>
</g>
<g>
</g>
<g>
</g>
<g>
</g>
<g>
</g>
<g>
</g>
<g>
</g>
<g>
</g>
<g>
</g>
<g>
</g>
<g>
</g>
</svg>
